<?xml version="1.0" encoding="UTF-8" standalone="no"?>
<svg
   xmlns:dc="http://purl.org/dc/elements/1.1/"
   xmlns:cc="http://creativecommons.org/ns#"
   xmlns:rdf="http://www.w3.org/1999/02/22-rdf-syntax-ns#"
   xmlns:svg="http://www.w3.org/2000/svg"
   xmlns="http://www.w3.org/2000/svg"
   xmlns:sodipodi="http://sodipodi.sourceforge.net/DTD/sodipodi-0.dtd"
   xmlns:inkscape="http://www.inkscape.org/namespaces/inkscape"
   width="190mm"
   height="132mm"
   viewBox="0 0 19000 13200"
   version="1.1"
   stroke-width="28.222"
   stroke-linejoin="round"
   xml:space="preserve"
   id="svg2"
   inkscape:version="0.91 r13725"
   sodipodi:docname="fixed_LLE2_45_dependency_to_shift_left.svg"><metadata
   id="metadata328"><rdf:RDF><cc:Work
       rdf:about=""><dc:format>image/svg+xml</dc:format><dc:type
         rdf:resource="http://purl.org/dc/dcmitype/StillImage" /></cc:Work></rdf:RDF></metadata><defs
   id="defs326" /><sodipodi:namedview
   pagecolor="#ffffff"
   bordercolor="#666666"
   borderopacity="1"
   objecttolerance="10"
   gridtolerance="10"
   guidetolerance="10"
   inkscape:pageopacity="0"
   inkscape:pageshadow="2"
   inkscape:window-width="1920"
   inkscape:window-height="1018"
   id="namedview324"
   showgrid="false"
   inkscape:zoom="1.2435817"
   inkscape:cx="187.88955"
   inkscape:cy="227.90295"
   inkscape:window-x="-8"
   inkscape:window-y="-8"
   inkscape:window-maximized="1"
   inkscape:current-layer="svg2" />
 <path
   fill="rgb(255,255,255)"
   stroke="none"
   d="M 9504,13164 L 0,13164 0,0 19007,0 19007,13164 9504,13164 Z"
   id="path4" />
 <path
   fill="none"
   stroke="rgb(179,179,179)"
   stroke-linejoin="round"
   d="M 10054,11721 L 1629,11721 1629,1640 18480,1640 18480,11721 10054,11721 Z"
   id="path6" />
 <path
   fill="none"
   stroke="rgb(179,179,179)"
   stroke-linejoin="round"
   d="M 18480,11720 L 1629,11720"
   id="path8" />
 <path
   fill="none"
   stroke="rgb(179,179,179)"
   stroke-linejoin="round"
   d="M 18480,10459 L 1629,10459"
   id="path10" />
 <path
   fill="none"
   stroke="rgb(179,179,179)"
   stroke-linejoin="round"
   d="M 18480,9199 L 1629,9199"
   id="path12" />
 <path
   fill="none"
   stroke="rgb(179,179,179)"
   stroke-linejoin="round"
   d="M 18480,7939 L 1629,7939"
   id="path14" />
 <path
   fill="none"
   stroke="rgb(179,179,179)"
   stroke-linejoin="round"
   d="M 18480,6679 L 1629,6679"
   id="path16" />
 <path
   fill="none"
   stroke="rgb(179,179,179)"
   stroke-linejoin="round"
   d="M 18480,5419 L 1629,5419"
   id="path18" />
 <path
   fill="none"
   stroke="rgb(179,179,179)"
   stroke-linejoin="round"
   d="M 18480,4159 L 1629,4159"
   id="path20" />
 <path
   fill="none"
   stroke="rgb(179,179,179)"
   stroke-linejoin="round"
   d="M 18480,2899 L 1629,2899"
   id="path22" />
 <path
   fill="none"
   stroke="rgb(179,179,179)"
   stroke-linejoin="round"
   d="M 18480,1638 L 1629,1638"
   id="path24" />
 <path
   fill="none"
   stroke="rgb(179,179,179)"
   stroke-linejoin="round"
   d="M 1629,4309 L 1629,4159"
   id="path26" />
 <path
   fill="none"
   stroke="rgb(179,179,179)"
   stroke-linejoin="round"
   d="M 1629,4309 L 1629,4159"
   id="path28" />
 <path
   fill="none"
   stroke="rgb(179,179,179)"
   stroke-linejoin="round"
   d="M 3501,4309 L 3501,4159"
   id="path30" />
 <path
   fill="none"
   stroke="rgb(179,179,179)"
   stroke-linejoin="round"
   d="M 3501,4309 L 3501,4159"
   id="path32" />
 <path
   fill="none"
   stroke="rgb(179,179,179)"
   stroke-linejoin="round"
   d="M 5373,4309 L 5373,4159"
   id="path34" />
 <path
   fill="none"
   stroke="rgb(179,179,179)"
   stroke-linejoin="round"
   d="M 5373,4309 L 5373,4159"
   id="path36" />
 <path
   fill="none"
   stroke="rgb(179,179,179)"
   stroke-linejoin="round"
   d="M 7246,4309 L 7246,4159"
   id="path38" />
 <path
   fill="none"
   stroke="rgb(179,179,179)"
   stroke-linejoin="round"
   d="M 7246,4309 L 7246,4159"
   id="path40" />
 <path
   fill="none"
   stroke="rgb(179,179,179)"
   stroke-linejoin="round"
   d="M 9118,4309 L 9118,4159"
   id="path42" />
 <path
   fill="none"
   stroke="rgb(179,179,179)"
   stroke-linejoin="round"
   d="M 9118,4309 L 9118,4159"
   id="path44" />
 <path
   fill="none"
   stroke="rgb(179,179,179)"
   stroke-linejoin="round"
   d="M 10990,4309 L 10990,4159"
   id="path46" />
 <path
   fill="none"
   stroke="rgb(179,179,179)"
   stroke-linejoin="round"
   d="M 10990,4309 L 10990,4159"
   id="path48" />
 <path
   fill="none"
   stroke="rgb(179,179,179)"
   stroke-linejoin="round"
   d="M 12862,4309 L 12862,4159"
   id="path50" />
 <path
   fill="none"
   stroke="rgb(179,179,179)"
   stroke-linejoin="round"
   d="M 12862,4309 L 12862,4159"
   id="path52" />
 <path
   fill="none"
   stroke="rgb(179,179,179)"
   stroke-linejoin="round"
   d="M 14735,4309 L 14735,4159"
   id="path54" />
 <path
   fill="none"
   stroke="rgb(179,179,179)"
   stroke-linejoin="round"
   d="M 14735,4309 L 14735,4159"
   id="path56" />
 <path
   fill="none"
   stroke="rgb(179,179,179)"
   stroke-linejoin="round"
   d="M 16607,4309 L 16607,4159"
   id="path58" />
 <path
   fill="none"
   stroke="rgb(179,179,179)"
   stroke-linejoin="round"
   d="M 16607,4309 L 16607,4159"
   id="path60" />
 <path
   fill="none"
   stroke="rgb(179,179,179)"
   stroke-linejoin="round"
   d="M 18480,4309 L 18480,4159"
   id="path62" />
 <path
   fill="none"
   stroke="rgb(179,179,179)"
   stroke-linejoin="round"
   d="M 18480,4309 L 18480,4159"
   id="path64" />
 <path
   fill="none"
   stroke="rgb(179,179,179)"
   stroke-linejoin="round"
   d="M 1629,4159 L 18480,4159"
   id="path66" />
 <path
   fill="none"
   stroke="rgb(179,179,179)"
   stroke-linejoin="round"
   d="M 18330,11720 L 18480,11720"
   id="path68" />
 <path
   fill="none"
   stroke="rgb(179,179,179)"
   stroke-linejoin="round"
   d="M 18330,11720 L 18480,11720"
   id="path70" />
 <path
   fill="none"
   stroke="rgb(179,179,179)"
   stroke-linejoin="round"
   d="M 18330,10459 L 18480,10459"
   id="path72" />
 <path
   fill="none"
   stroke="rgb(179,179,179)"
   stroke-linejoin="round"
   d="M 18330,10459 L 18480,10459"
   id="path74" />
 <path
   fill="none"
   stroke="rgb(179,179,179)"
   stroke-linejoin="round"
   d="M 18330,9199 L 18480,9199"
   id="path76" />
 <path
   fill="none"
   stroke="rgb(179,179,179)"
   stroke-linejoin="round"
   d="M 18330,9199 L 18480,9199"
   id="path78" />
 <path
   fill="none"
   stroke="rgb(179,179,179)"
   stroke-linejoin="round"
   d="M 18330,7939 L 18480,7939"
   id="path80" />
 <path
   fill="none"
   stroke="rgb(179,179,179)"
   stroke-linejoin="round"
   d="M 18330,7939 L 18480,7939"
   id="path82" />
 <path
   fill="none"
   stroke="rgb(179,179,179)"
   stroke-linejoin="round"
   d="M 18330,6679 L 18480,6679"
   id="path84" />
 <path
   fill="none"
   stroke="rgb(179,179,179)"
   stroke-linejoin="round"
   d="M 18330,6679 L 18480,6679"
   id="path86" />
 <path
   fill="none"
   stroke="rgb(179,179,179)"
   stroke-linejoin="round"
   d="M 18330,5419 L 18480,5419"
   id="path88" />
 <path
   fill="none"
   stroke="rgb(179,179,179)"
   stroke-linejoin="round"
   d="M 18330,5419 L 18480,5419"
   id="path90" />
 <path
   fill="none"
   stroke="rgb(179,179,179)"
   stroke-linejoin="round"
   d="M 18330,4159 L 18480,4159"
   id="path92" />
 <path
   fill="none"
   stroke="rgb(179,179,179)"
   stroke-linejoin="round"
   d="M 18330,4159 L 18480,4159"
   id="path94" />
 <path
   fill="none"
   stroke="rgb(179,179,179)"
   stroke-linejoin="round"
   d="M 18330,2899 L 18480,2899"
   id="path96" />
 <path
   fill="none"
   stroke="rgb(179,179,179)"
   stroke-linejoin="round"
   d="M 18330,2899 L 18480,2899"
   id="path98" />
 <path
   fill="none"
   stroke="rgb(179,179,179)"
   stroke-linejoin="round"
   d="M 18330,1639 L 18480,1639"
   id="path100" />
 <path
   fill="none"
   stroke="rgb(179,179,179)"
   stroke-linejoin="round"
   d="M 18330,1639 L 18480,1639"
   id="path102" />
 <path
   fill="none"
   stroke="rgb(179,179,179)"
   stroke-linejoin="round"
   d="M 18480,11720 L 18480,1639"
   id="path104" />
 <path
   fill="rgb(0,69,134)"
   stroke="none"
   d="M 16760,10964 L 16760,11214 17010,11214 17010,10964 16760,10964 Z"
   id="path106" />
 <path
   fill="none"
   stroke="rgb(0,69,134)"
   stroke-linejoin="round"
   d="M 16760,10964 L 16760,11214 17010,11214 17010,10964 16760,10964 Z"
   id="path108" />
 <path
   fill="rgb(0,69,134)"
   stroke="none"
   d="M 14454,9704 L 14454,9954 14704,9954 14704,9704 14454,9704 Z"
   id="path110" />
 <path
   fill="none"
   stroke="rgb(0,69,134)"
   stroke-linejoin="round"
   d="M 14454,9704 L 14454,9954 14704,9954 14704,9704 14454,9704 Z"
   id="path112" />
 <path
   fill="rgb(0,69,134)"
   stroke="none"
   d="M 14431,8444 L 14431,8694 14681,8694 14681,8444 14431,8444 Z"
   id="path114" />
 <path
   fill="none"
   stroke="rgb(0,69,134)"
   stroke-linejoin="round"
   d="M 14431,8444 L 14431,8694 14681,8694 14681,8444 14431,8444 Z"
   id="path116" />
 <path
   fill="rgb(0,69,134)"
   stroke="none"
   d="M 14293,7499 L 14293,7749 14543,7749 14543,7499 14293,7499 Z"
   id="path118" />
 <path
   fill="none"
   stroke="rgb(0,69,134)"
   stroke-linejoin="round"
   d="M 14293,7499 L 14293,7749 14543,7749 14543,7499 14293,7499 Z"
   id="path120" />
 <path
   fill="rgb(0,69,134)"
   stroke="none"
   d="M 13933,6555 L 13933,6804 14183,6804 14183,6555 13933,6555 Z"
   id="path122" />
 <path
   fill="none"
   stroke="rgb(0,69,134)"
   stroke-linejoin="round"
   d="M 13933,6555 L 13933,6804 14183,6804 14183,6555 13933,6555 Z"
   id="path124" />
 <path
   fill="rgb(0,69,134)"
   stroke="none"
   d="M 12914,5294 L 12914,5544 13164,5544 13164,5294 12914,5294 Z"
   id="path126" />
 <path
   fill="none"
   stroke="rgb(0,69,134)"
   stroke-linejoin="round"
   d="M 12914,5294 L 12914,5544 13164,5544 13164,5294 12914,5294 Z"
   id="path128" />
 <path
   fill="rgb(0,69,134)"
   stroke="none"
   d="M 4260,4034 L 4260,4284 4510,4284 4510,4034 4260,4034 Z"
   id="path130" />
 <path
   fill="none"
   stroke="rgb(0,69,134)"
   stroke-linejoin="round"
   d="M 4260,4034 L 4260,4284 4510,4284 4510,4034 4260,4034 Z"
   id="path132" />
 <path
   fill="rgb(0,69,134)"
   stroke="none"
   d="M 3484,2774 L 3484,3024 3734,3024 3734,2774 3484,2774 Z"
   id="path134" />
 <path
   fill="none"
   stroke="rgb(0,69,134)"
   stroke-linejoin="round"
   d="M 3484,2774 L 3484,3024 3734,3024 3734,2774 3484,2774 Z"
   id="path136" />
 <path
   fill="none"
   stroke="rgb(0,69,134)"
   stroke-linejoin="round"
   d="M 3609,3453 L 3781,3457 3954,3460 4126,3464 4299,3467 4471,3472 4643,3476 4816,3482 4988,3487 5161,3494 5333,3502 5506,3510 5678,3520 5850,3531 6023,3543 6195,3557 6368,3572 6540,3589 6713,3607 6885,3627 7057,3650 7230,3674 7402,3700 7575,3729 7747,3760 7920,3794 8092,3830 8264,3869 8437,3910 8609,3954 8782,4002 8954,4052 9127,4106 9299,4163 9472,4223 9643,4287 9815,4355 9988,4426 10160,4501 10333,4580 10505,4663 10678,4750 10850,4842 11022,4938 11195,5038 11367,5143 11540,5252 11712,5366 11885,5485 12057,5609 12229,5739 12402,5873 12574,6013 12747,6158 12919,6308 13092,6464 13264,6625 13437,6793 13609,6966 13781,7146 13954,7332 14126,7524 14299,7722 14471,7927 14644,8138 14816,8356 14988,8581 15161,8813 15333,9051 15506,9297 15678,9550 15851,9810 16023,10077 16195,10352 16368,10635 16540,10925 16713,11224 16885,11530"
   id="path138" />
 <text
   class="TextShape"
   id="text140"><tspan
     class="TextParagraph"
     font-family="Liberation Sans"
     font-size="353px"
     font-weight="400"
     id="tspan142"><tspan
       class="TextPosition"
       x="1391"
       y="4727"
       id="tspan144"><tspan
         fill="rgb(0,0,0)"
         stroke="none"
         id="tspan146">-50</tspan></tspan></tspan></text>

 <text
   class="TextShape"
   id="text148"><tspan
     class="TextParagraph"
     font-family="Liberation Sans"
     font-size="353px"
     font-weight="400"
     id="tspan150"><tspan
       class="TextPosition"
       x="3263"
       y="4727"
       id="tspan152"><tspan
         fill="rgb(0,0,0)"
         stroke="none"
         id="tspan154">-45</tspan></tspan></tspan></text>

 <text
   class="TextShape"
   id="text156"><tspan
     class="TextParagraph"
     font-family="Liberation Sans"
     font-size="353px"
     font-weight="400"
     id="tspan158"><tspan
       class="TextPosition"
       x="5135"
       y="4727"
       id="tspan160"><tspan
         fill="rgb(0,0,0)"
         stroke="none"
         id="tspan162">-40</tspan></tspan></tspan></text>

 <text
   class="TextShape"
   id="text164"><tspan
     class="TextParagraph"
     font-family="Liberation Sans"
     font-size="353px"
     font-weight="400"
     id="tspan166"><tspan
       class="TextPosition"
       x="7008"
       y="4727"
       id="tspan168"><tspan
         fill="rgb(0,0,0)"
         stroke="none"
         id="tspan170">-35</tspan></tspan></tspan></text>

 <text
   class="TextShape"
   id="text172"><tspan
     class="TextParagraph"
     font-family="Liberation Sans"
     font-size="353px"
     font-weight="400"
     id="tspan174"><tspan
       class="TextPosition"
       x="8880"
       y="4727"
       id="tspan176"><tspan
         fill="rgb(0,0,0)"
         stroke="none"
         id="tspan178">-30</tspan></tspan></tspan></text>

 <text
   class="TextShape"
   id="text180"><tspan
     class="TextParagraph"
     font-family="Liberation Sans"
     font-size="353px"
     font-weight="400"
     id="tspan182"><tspan
       class="TextPosition"
       x="10753"
       y="4727"
       id="tspan184"><tspan
         fill="rgb(0,0,0)"
         stroke="none"
         id="tspan186">-25</tspan></tspan></tspan></text>

 <text
   class="TextShape"
   id="text188"><tspan
     class="TextParagraph"
     font-family="Liberation Sans"
     font-size="353px"
     font-weight="400"
     id="tspan190"><tspan
       class="TextPosition"
       x="12625"
       y="4727"
       id="tspan192"><tspan
         fill="rgb(0,0,0)"
         stroke="none"
         id="tspan194">-20</tspan></tspan></tspan></text>

 <text
   class="TextShape"
   id="text196"><tspan
     class="TextParagraph"
     font-family="Liberation Sans"
     font-size="353px"
     font-weight="400"
     id="tspan198"><tspan
       class="TextPosition"
       x="14498"
       y="4727"
       id="tspan200"><tspan
         fill="rgb(0,0,0)"
         stroke="none"
         id="tspan202">-15</tspan></tspan></tspan></text>

 <text
   class="TextShape"
   id="text204"><tspan
     class="TextParagraph"
     font-family="Liberation Sans"
     font-size="353px"
     font-weight="400"
     id="tspan206"><tspan
       class="TextPosition"
       x="16370"
       y="4727"
       id="tspan208"><tspan
         fill="rgb(0,0,0)"
         stroke="none"
         id="tspan210">-10</tspan></tspan></tspan></text>

 <text
   class="TextShape"
   id="text212"><tspan
     class="TextParagraph"
     font-family="Liberation Sans"
     font-size="353px"
     font-weight="400"
     id="tspan214"><tspan
       class="TextPosition"
       x="18335"
       y="4727"
       id="tspan216"><tspan
         fill="rgb(0,0,0)"
         stroke="none"
         id="tspan218">-5</tspan></tspan></tspan></text>

 <text
   class="TextShape"
   id="text220"><tspan
     class="TextParagraph"
     font-family="Liberation Sans"
     font-size="353px"
     font-weight="400"
     id="tspan222"><tspan
       class="TextPosition"
       x="17463"
       y="11841"
       id="tspan224"><tspan
         fill="rgb(0,0,0)"
         stroke="none"
         id="tspan226">-0,12</tspan></tspan></tspan></text>

 <text
   class="TextShape"
   id="text228"><tspan
     class="TextParagraph"
     font-family="Liberation Sans"
     font-size="353px"
     font-weight="400"
     id="tspan230"><tspan
       class="TextPosition"
       x="17648"
       y="10580"
       id="tspan232"><tspan
         fill="rgb(0,0,0)"
         stroke="none"
         id="tspan234">-0,1</tspan></tspan></tspan></text>

 <text
   class="TextShape"
   id="text236"><tspan
     class="TextParagraph"
     font-family="Liberation Sans"
     font-size="353px"
     font-weight="400"
     id="tspan238"><tspan
       class="TextPosition"
       x="17463"
       y="9320"
       id="tspan240"><tspan
         fill="rgb(0,0,0)"
         stroke="none"
         id="tspan242">-0,08</tspan></tspan></tspan></text>

 <text
   class="TextShape"
   id="text244"><tspan
     class="TextParagraph"
     font-family="Liberation Sans"
     font-size="353px"
     font-weight="400"
     id="tspan246"><tspan
       class="TextPosition"
       x="17463"
       y="8060"
       id="tspan248"><tspan
         fill="rgb(0,0,0)"
         stroke="none"
         id="tspan250">-0,06</tspan></tspan></tspan></text>

 <text
   class="TextShape"
   id="text252"><tspan
     class="TextParagraph"
     font-family="Liberation Sans"
     font-size="353px"
     font-weight="400"
     id="tspan254"><tspan
       class="TextPosition"
       x="17463"
       y="6800"
       id="tspan256"><tspan
         fill="rgb(0,0,0)"
         stroke="none"
         id="tspan258">-0,04</tspan></tspan></tspan></text>

 <text
   class="TextShape"
   id="text260"><tspan
     class="TextParagraph"
     font-family="Liberation Sans"
     font-size="353px"
     font-weight="400"
     id="tspan262"><tspan
       class="TextPosition"
       x="17463"
       y="5539"
       id="tspan264"><tspan
         fill="rgb(0,0,0)"
         stroke="none"
         id="tspan266">-0,02</tspan></tspan></tspan></text>

 <text
   class="TextShape"
   id="text268"><tspan
     class="TextParagraph"
     font-family="Liberation Sans"
     font-size="353px"
     font-weight="400"
     id="tspan270"><tspan
       class="TextPosition"
       x="18045"
       y="4279"
       id="tspan272"><tspan
         fill="rgb(0,0,0)"
         stroke="none"
         id="tspan274">0</tspan></tspan></tspan></text>

 <text
   class="TextShape"
   id="text276"><tspan
     class="TextParagraph"
     font-family="Liberation Sans"
     font-size="353px"
     font-weight="400"
     id="tspan278"><tspan
       class="TextPosition"
       x="17569"
       y="3019"
       id="tspan280"><tspan
         fill="rgb(0,0,0)"
         stroke="none"
         id="tspan282">0,02</tspan></tspan></tspan></text>

 <text
   class="TextShape"
   id="text284"><tspan
     class="TextParagraph"
     font-family="Liberation Sans"
     font-size="353px"
     font-weight="400"
     id="tspan286"><tspan
       class="TextPosition"
       x="17569"
       y="1759"
       id="tspan288"><tspan
         fill="rgb(0,0,0)"
         stroke="none"
         id="tspan290">0,04</tspan></tspan></tspan></text>

 
 <text
   class="TextShape"
   id="text300"><tspan
     class="TextParagraph"
     font-family="Liberation Sans"
     font-size="459px"
     font-weight="400"
     id="tspan302"><tspan
       class="TextPosition"
       x="9438"
       y="934"
       id="tspan304"><tspan
         fill="rgb(0,0,0)"
         stroke="none"
         id="tspan306"> </tspan></tspan></tspan></text>

 <text
   class="TextShape"
   id="text308"><tspan
     class="TextParagraph"
     font-family="Liberation Sans"
     font-size="318px"
     font-weight="400"
     id="tspan310"><tspan
       class="TextPosition"
       x="9532"
       y="12570"
       id="tspan312"><tspan
         fill="rgb(0,0,0)"
         stroke="none"
         id="tspan314">Alfa (°)</tspan></tspan></tspan></text>

 <text
   class="TextShape"
   id="text316"
   x="-8802.2656"
   y="-8200.4111"
   transform="matrix(0,-1,1,0,0,0)"><tspan
     class="TextParagraph"
     font-size="318px"
     font-weight="400"
     id="tspan318"
     style="font-weight:400;font-size:318px;font-family:'Liberation Sans'"><tspan
       class="TextPosition"
       x="-7965.2661"
       y="861.58813"
       transform="matrix(0,-1,1,0,-8225,9899)"
       id="tspan320"><tspan
         id="tspan322"
         style="fill:#000000;stroke:none">Pozícia hráča na osi y ihriska (m)</tspan></tspan></tspan></text>

</svg>