<?xml version="1.0" encoding="UTF-8" standalone="no"?>
<svg
   xmlns:dc="http://purl.org/dc/elements/1.1/"
   xmlns:cc="http://creativecommons.org/ns#"
   xmlns:rdf="http://www.w3.org/1999/02/22-rdf-syntax-ns#"
   xmlns:svg="http://www.w3.org/2000/svg"
   xmlns="http://www.w3.org/2000/svg"
   xmlns:sodipodi="http://sodipodi.sourceforge.net/DTD/sodipodi-0.dtd"
   xmlns:inkscape="http://www.inkscape.org/namespaces/inkscape"
   width="218mm"
   height="145mm"
   viewBox="0 0 21800 14500"
   version="1.1"
   stroke-width="28.222"
   stroke-linejoin="round"
   xml:space="preserve"
   id="svg2"
   inkscape:version="0.48.4 r9939"
   sodipodi:docname="graph_example.svg"><metadata
     id="metadata388"><rdf:RDF><cc:Work
         rdf:about=""><dc:format>image/svg+xml</dc:format><dc:type
           rdf:resource="http://purl.org/dc/dcmitype/StillImage" /></cc:Work></rdf:RDF></metadata><defs
     id="defs386" /><sodipodi:namedview
     pagecolor="#ffffff"
     bordercolor="#666666"
     borderopacity="1"
     objecttolerance="10"
     gridtolerance="10"
     guidetolerance="10"
     inkscape:pageopacity="0"
     inkscape:pageshadow="2"
     inkscape:window-width="1366"
     inkscape:window-height="716"
     id="namedview384"
     showgrid="false"
     inkscape:zoom="0.81454783"
     inkscape:cx="386.29744"
     inkscape:cy="288.04929"
     inkscape:window-x="0"
     inkscape:window-y="0"
     inkscape:window-maximized="1"
     inkscape:current-layer="svg2" /><path
     fill="rgb(255,255,255)"
     stroke="none"
     d="M 10916,14503 L 0,14503 0,0 21832,0 21832,14503 10916,14503 Z"
     id="path4" /><path
     fill="none"
     stroke="rgb(179,179,179)"
     stroke-linejoin="round"
     d="M 11494,13033 L 1831,13033 1831,1720 21157,1720 21157,13033 11494,13033 Z"
     id="path6" /><path
     fill="none"
     stroke="rgb(179,179,179)"
     stroke-linejoin="round"
     d="M 21157,13032 L 1831,13032"
     id="path8" /><path
     fill="none"
     stroke="rgb(179,179,179)"
     stroke-linejoin="round"
     d="M 21157,11900 L 1831,11900"
     id="path10" /><path
     fill="none"
     stroke="rgb(179,179,179)"
     stroke-linejoin="round"
     d="M 21157,10769 L 1831,10769"
     id="path12" /><path
     fill="none"
     stroke="rgb(179,179,179)"
     stroke-linejoin="round"
     d="M 21157,9637 L 1831,9637"
     id="path14" /><path
     fill="none"
     stroke="rgb(179,179,179)"
     stroke-linejoin="round"
     d="M 21157,8506 L 1831,8506"
     id="path16" /><path
     fill="none"
     stroke="rgb(179,179,179)"
     stroke-linejoin="round"
     d="M 21157,7375 L 1831,7375"
     id="path18" /><path
     fill="none"
     stroke="rgb(179,179,179)"
     stroke-linejoin="round"
     d="M 21157,6244 L 1831,6244"
     id="path20" /><path
     fill="none"
     stroke="rgb(179,179,179)"
     stroke-linejoin="round"
     d="M 21157,5113 L 1831,5113"
     id="path22" /><path
     fill="none"
     stroke="rgb(179,179,179)"
     stroke-linejoin="round"
     d="M 21157,3981 L 1831,3981"
     id="path24" /><path
     fill="none"
     stroke="rgb(179,179,179)"
     stroke-linejoin="round"
     d="M 21157,2850 L 1831,2850"
     id="path26" /><path
     fill="none"
     stroke="rgb(179,179,179)"
     stroke-linejoin="round"
     d="M 21157,1719 L 1831,1719"
     id="path28" /><path
     fill="none"
     stroke="rgb(179,179,179)"
     stroke-linejoin="round"
     d="M 1831,7525 L 1831,7375"
     id="path30" /><path
     fill="none"
     stroke="rgb(179,179,179)"
     stroke-linejoin="round"
     d="M 1831,7525 L 1831,7375"
     id="path32" /><path
     fill="none"
     stroke="rgb(179,179,179)"
     stroke-linejoin="round"
     d="M 3978,7525 L 3978,7375"
     id="path34" /><path
     fill="none"
     stroke="rgb(179,179,179)"
     stroke-linejoin="round"
     d="M 3978,7525 L 3978,7375"
     id="path36" /><path
     fill="none"
     stroke="rgb(179,179,179)"
     stroke-linejoin="round"
     d="M 6125,7525 L 6125,7375"
     id="path38" /><path
     fill="none"
     stroke="rgb(179,179,179)"
     stroke-linejoin="round"
     d="M 6125,7525 L 6125,7375"
     id="path40" /><path
     fill="none"
     stroke="rgb(179,179,179)"
     stroke-linejoin="round"
     d="M 8273,7525 L 8273,7375"
     id="path42" /><path
     fill="none"
     stroke="rgb(179,179,179)"
     stroke-linejoin="round"
     d="M 8273,7525 L 8273,7375"
     id="path44" /><path
     fill="none"
     stroke="rgb(179,179,179)"
     stroke-linejoin="round"
     d="M 10420,7525 L 10420,7375"
     id="path46" /><path
     fill="none"
     stroke="rgb(179,179,179)"
     stroke-linejoin="round"
     d="M 10420,7525 L 10420,7375"
     id="path48" /><path
     fill="none"
     stroke="rgb(179,179,179)"
     stroke-linejoin="round"
     d="M 12567,7525 L 12567,7375"
     id="path50" /><path
     fill="none"
     stroke="rgb(179,179,179)"
     stroke-linejoin="round"
     d="M 12567,7525 L 12567,7375"
     id="path52" /><path
     fill="none"
     stroke="rgb(179,179,179)"
     stroke-linejoin="round"
     d="M 14714,7525 L 14714,7375"
     id="path54" /><path
     fill="none"
     stroke="rgb(179,179,179)"
     stroke-linejoin="round"
     d="M 14714,7525 L 14714,7375"
     id="path56" /><path
     fill="none"
     stroke="rgb(179,179,179)"
     stroke-linejoin="round"
     d="M 16862,7525 L 16862,7375"
     id="path58" /><path
     fill="none"
     stroke="rgb(179,179,179)"
     stroke-linejoin="round"
     d="M 16862,7525 L 16862,7375"
     id="path60" /><path
     fill="none"
     stroke="rgb(179,179,179)"
     stroke-linejoin="round"
     d="M 19009,7525 L 19009,7375"
     id="path62" /><path
     fill="none"
     stroke="rgb(179,179,179)"
     stroke-linejoin="round"
     d="M 19009,7525 L 19009,7375"
     id="path64" /><path
     fill="none"
     stroke="rgb(179,179,179)"
     stroke-linejoin="round"
     d="M 21156,7525 L 21156,7375"
     id="path66" /><path
     fill="none"
     stroke="rgb(179,179,179)"
     stroke-linejoin="round"
     d="M 21156,7525 L 21156,7375"
     id="path68" /><path
     fill="none"
     stroke="rgb(179,179,179)"
     stroke-linejoin="round"
     d="M 1831,7375 L 21157,7375"
     id="path70" /><path
     fill="none"
     stroke="rgb(179,179,179)"
     stroke-linejoin="round"
     d="M 10270,13032 L 10420,13032"
     id="path72" /><path
     fill="none"
     stroke="rgb(179,179,179)"
     stroke-linejoin="round"
     d="M 10270,13032 L 10420,13032"
     id="path74" /><path
     fill="none"
     stroke="rgb(179,179,179)"
     stroke-linejoin="round"
     d="M 10270,11900 L 10420,11900"
     id="path76" /><path
     fill="none"
     stroke="rgb(179,179,179)"
     stroke-linejoin="round"
     d="M 10270,11900 L 10420,11900"
     id="path78" /><path
     fill="none"
     stroke="rgb(179,179,179)"
     stroke-linejoin="round"
     d="M 10270,10769 L 10420,10769"
     id="path80" /><path
     fill="none"
     stroke="rgb(179,179,179)"
     stroke-linejoin="round"
     d="M 10270,10769 L 10420,10769"
     id="path82" /><path
     fill="none"
     stroke="rgb(179,179,179)"
     stroke-linejoin="round"
     d="M 10270,9637 L 10420,9637"
     id="path84" /><path
     fill="none"
     stroke="rgb(179,179,179)"
     stroke-linejoin="round"
     d="M 10270,9637 L 10420,9637"
     id="path86" /><path
     fill="none"
     stroke="rgb(179,179,179)"
     stroke-linejoin="round"
     d="M 10270,8506 L 10420,8506"
     id="path88" /><path
     fill="none"
     stroke="rgb(179,179,179)"
     stroke-linejoin="round"
     d="M 10270,8506 L 10420,8506"
     id="path90" /><path
     fill="none"
     stroke="rgb(179,179,179)"
     stroke-linejoin="round"
     d="M 10270,7375 L 10420,7375"
     id="path92" /><path
     fill="none"
     stroke="rgb(179,179,179)"
     stroke-linejoin="round"
     d="M 10270,7375 L 10420,7375"
     id="path94" /><path
     fill="none"
     stroke="rgb(179,179,179)"
     stroke-linejoin="round"
     d="M 10270,6244 L 10420,6244"
     id="path96" /><path
     fill="none"
     stroke="rgb(179,179,179)"
     stroke-linejoin="round"
     d="M 10270,6244 L 10420,6244"
     id="path98" /><path
     fill="none"
     stroke="rgb(179,179,179)"
     stroke-linejoin="round"
     d="M 10270,5113 L 10420,5113"
     id="path100" /><path
     fill="none"
     stroke="rgb(179,179,179)"
     stroke-linejoin="round"
     d="M 10270,5113 L 10420,5113"
     id="path102" /><path
     fill="none"
     stroke="rgb(179,179,179)"
     stroke-linejoin="round"
     d="M 10270,3981 L 10420,3981"
     id="path104" /><path
     fill="none"
     stroke="rgb(179,179,179)"
     stroke-linejoin="round"
     d="M 10270,3981 L 10420,3981"
     id="path106" /><path
     fill="none"
     stroke="rgb(179,179,179)"
     stroke-linejoin="round"
     d="M 10270,2850 L 10420,2850"
     id="path108" /><path
     fill="none"
     stroke="rgb(179,179,179)"
     stroke-linejoin="round"
     d="M 10270,2850 L 10420,2850"
     id="path110" /><path
     fill="none"
     stroke="rgb(179,179,179)"
     stroke-linejoin="round"
     d="M 10270,1719 L 10420,1719"
     id="path112" /><path
     fill="none"
     stroke="rgb(179,179,179)"
     stroke-linejoin="round"
     d="M 10270,1719 L 10420,1719"
     id="path114" /><path
     fill="none"
     stroke="rgb(179,179,179)"
     stroke-linejoin="round"
     d="M 10420,13032 L 10420,1719"
     id="path116" /><path
     fill="rgb(0,69,134)"
     stroke="none"
     d="M 4068,2483 L 4068,2733 4318,2733 4318,2483 4068,2483 Z"
     id="path118" /><path
     fill="none"
     stroke="rgb(0,69,134)"
     stroke-linejoin="round"
     d="M 4068,2483 L 4068,2733 4318,2733 4318,2483 4068,2483 Z"
     id="path120" /><path
     fill="rgb(0,69,134)"
     stroke="none"
     d="M 4390,2388 L 4390,2638 4640,2638 4640,2388 4390,2388 Z"
     id="path122" /><path
     fill="none"
     stroke="rgb(0,69,134)"
     stroke-linejoin="round"
     d="M 4390,2388 L 4390,2638 4640,2638 4640,2388 4390,2388 Z"
     id="path124" /><path
     fill="rgb(0,69,134)"
     stroke="none"
     d="M 5464,3515 L 5464,3765 5714,3765 5714,3515 5464,3515 Z"
     id="path126" /><path
     fill="none"
     stroke="rgb(0,69,134)"
     stroke-linejoin="round"
     d="M 5464,3515 L 5464,3765 5714,3765 5714,3515 5464,3515 Z"
     id="path128" /><path
     fill="rgb(0,69,134)"
     stroke="none"
     d="M 6537,6338 L 6537,6588 6787,6588 6787,6338 6537,6338 Z"
     id="path130" /><path
     fill="none"
     stroke="rgb(0,69,134)"
     stroke-linejoin="round"
     d="M 6537,6338 L 6537,6588 6787,6588 6787,6338 6537,6338 Z"
     id="path132" /><path
     fill="rgb(0,69,134)"
     stroke="none"
     d="M 7611,8302 L 7611,8552 7861,8552 7861,8302 7611,8302 Z"
     id="path134" /><path
     fill="none"
     stroke="rgb(0,69,134)"
     stroke-linejoin="round"
     d="M 7611,8302 L 7611,8552 7861,8552 7861,8302 7611,8302 Z"
     id="path136" /><path
     fill="rgb(0,69,134)"
     stroke="none"
     d="M 8685,8797 L 8685,9047 8935,9047 8935,8797 8685,8797 Z"
     id="path138" /><path
     fill="none"
     stroke="rgb(0,69,134)"
     stroke-linejoin="round"
     d="M 8685,8797 L 8685,9047 8935,9047 8935,8797 8685,8797 Z"
     id="path140" /><path
     fill="rgb(0,69,134)"
     stroke="none"
     d="M 9758,8754 L 9758,9004 10008,9004 10008,8754 9758,8754 Z"
     id="path142" /><path
     fill="none"
     stroke="rgb(0,69,134)"
     stroke-linejoin="round"
     d="M 9758,8754 L 9758,9004 10008,9004 10008,8754 9758,8754 Z"
     id="path144" /><path
     fill="rgb(0,69,134)"
     stroke="none"
     d="M 10295,8824 L 10295,9074 10545,9074 10545,8824 10295,8824 Z"
     id="path146" /><path
     fill="none"
     stroke="rgb(0,69,134)"
     stroke-linejoin="round"
     d="M 10295,8824 L 10295,9074 10545,9074 10545,8824 10295,8824 Z"
     id="path148" /><path
     fill="rgb(0,69,134)"
     stroke="none"
     d="M 10832,9213 L 10832,9463 11081,9463 11081,9213 10832,9213 Z"
     id="path150" /><path
     fill="none"
     stroke="rgb(0,69,134)"
     stroke-linejoin="round"
     d="M 10832,9213 L 10832,9463 11081,9463 11081,9213 10832,9213 Z"
     id="path152" /><path
     fill="rgb(0,69,134)"
     stroke="none"
     d="M 11905,8853 L 11905,9103 12155,9103 12155,8853 11905,8853 Z"
     id="path154" /><path
     fill="none"
     stroke="rgb(0,69,134)"
     stroke-linejoin="round"
     d="M 11905,8853 L 11905,9103 12155,9103 12155,8853 11905,8853 Z"
     id="path156" /><path
     fill="rgb(0,69,134)"
     stroke="none"
     d="M 12979,8754 L 12979,9004 13229,9004 13229,8754 12979,8754 Z"
     id="path158" /><path
     fill="none"
     stroke="rgb(0,69,134)"
     stroke-linejoin="round"
     d="M 12979,8754 L 12979,9004 13229,9004 13229,8754 12979,8754 Z"
     id="path160" /><path
     fill="rgb(0,69,134)"
     stroke="none"
     d="M 14052,8865 L 14052,9115 14302,9115 14302,8865 14052,8865 Z"
     id="path162" /><path
     fill="none"
     stroke="rgb(0,69,134)"
     stroke-linejoin="round"
     d="M 14052,8865 L 14052,9115 14302,9115 14302,8865 14052,8865 Z"
     id="path164" /><path
     fill="rgb(0,69,134)"
     stroke="none"
     d="M 15126,8710 L 15126,8960 15376,8960 15376,8710 15126,8710 Z"
     id="path166" /><path
     fill="none"
     stroke="rgb(0,69,134)"
     stroke-linejoin="round"
     d="M 15126,8710 L 15126,8960 15376,8960 15376,8710 15126,8710 Z"
     id="path168" /><path
     fill="rgb(0,69,134)"
     stroke="none"
     d="M 16200,9411 L 16200,9661 16450,9661 16450,9411 16200,9411 Z"
     id="path170" /><path
     fill="none"
     stroke="rgb(0,69,134)"
     stroke-linejoin="round"
     d="M 16200,9411 L 16200,9661 16450,9661 16450,9411 16200,9411 Z"
     id="path172" /><path
     fill="rgb(0,69,134)"
     stroke="none"
     d="M 17273,10396 L 17273,10646 17523,10646 17523,10396 17273,10396 Z"
     id="path174" /><path
     fill="none"
     stroke="rgb(0,69,134)"
     stroke-linejoin="round"
     d="M 17273,10396 L 17273,10646 17523,10646 17523,10396 17273,10396 Z"
     id="path176" /><path
     fill="rgb(0,69,134)"
     stroke="none"
     d="M 18347,12376 L 18347,12626 18597,12626 18597,12376 18347,12376 Z"
     id="path178" /><path
     fill="none"
     stroke="rgb(0,69,134)"
     stroke-linejoin="round"
     d="M 18347,12376 L 18347,12626 18597,12626 18597,12376 18347,12376 Z"
     id="path180" /><path
     fill="none"
     stroke="rgb(0,69,134)"
     stroke-linejoin="round"
     d="M 4193,1719 L 4391,2266 4589,2788 4788,3283 4986,3751 5184,4193 5383,4611 5581,5004 5779,5373 5978,5720 6176,6044 6374,6347 6573,6629 6771,6891 6969,7134 7168,7357 7366,7563 7564,7752 7763,7924 7961,8080 8159,8221 8358,8348 8556,8461 8755,8561 8953,8649 9151,8725 9350,8790 9548,8845 9746,8891 9945,8927 10143,8956 10341,8977 10540,8992 10738,9000 10935,9004 11134,9002 11332,8997 11530,8989 11729,8978 11927,8966 12125,8952 12324,8938 12522,8925 12720,8913 12919,8902 13117,8894 13315,8889 13514,8888 13712,8892 13910,8901 14109,8916 14307,8937 14505,8966 14704,9004 14902,9050 15100,9105 15299,9171 15497,9248 15695,9337 15894,9437 16092,9551 16290,9679 16489,9821 16687,9979 16885,10152 17084,10342 17282,10549 17480,10774 17679,11018 17877,11282 18076,11565 18274,11869 18472,12195"
     id="path182" /><text
     class="TextShape"
     id="text184"><tspan
       class="TextParagraph"
       font-family="Liberation Sans, sans-serif"
       font-size="353px"
       font-weight="400"
       id="tspan186"><tspan
         class="TextPosition"
         x="1447"
         y="7943"
         id="tspan188"><tspan
           fill="rgb(0,0,0)"
           stroke="none"
           id="tspan190">-0,08</tspan></tspan></tspan></text>
<text
     class="TextShape"
     id="text192"><tspan
       class="TextParagraph"
       font-family="Liberation Sans, sans-serif"
       font-size="353px"
       font-weight="400"
       id="tspan194"><tspan
         class="TextPosition"
         x="3594"
         y="7943"
         id="tspan196"><tspan
           fill="rgb(0,0,0)"
           stroke="none"
           id="tspan198">-0,06</tspan></tspan></tspan></text>
<text
     class="TextShape"
     id="text200"><tspan
       class="TextParagraph"
       font-family="Liberation Sans, sans-serif"
       font-size="353px"
       font-weight="400"
       id="tspan202"><tspan
         class="TextPosition"
         x="5741"
         y="7943"
         id="tspan204"><tspan
           fill="rgb(0,0,0)"
           stroke="none"
           id="tspan206">-0,04</tspan></tspan></tspan></text>
<text
     class="TextShape"
     id="text208"><tspan
       class="TextParagraph"
       font-family="Liberation Sans, sans-serif"
       font-size="353px"
       font-weight="400"
       id="tspan210"><tspan
         class="TextPosition"
         x="7889"
         y="7943"
         id="tspan212"><tspan
           fill="rgb(0,0,0)"
           stroke="none"
           id="tspan214">-0,02</tspan></tspan></tspan></text>
<text
     class="TextShape"
     id="text216"><tspan
       class="TextParagraph"
       font-family="Liberation Sans, sans-serif"
       font-size="353px"
       font-weight="400"
       id="tspan218"><tspan
         class="TextPosition"
         x="10327"
         y="7943"
         id="tspan220"><tspan
           fill="rgb(0,0,0)"
           stroke="none"
           id="tspan222">0</tspan></tspan></tspan></text>
<text
     class="TextShape"
     id="text224"><tspan
       class="TextParagraph"
       font-family="Liberation Sans, sans-serif"
       font-size="353px"
       font-weight="400"
       id="tspan226"><tspan
         class="TextPosition"
         x="12237"
         y="7943"
         id="tspan228"><tspan
           fill="rgb(0,0,0)"
           stroke="none"
           id="tspan230">0,02</tspan></tspan></tspan></text>
<text
     class="TextShape"
     id="text232"><tspan
       class="TextParagraph"
       font-family="Liberation Sans, sans-serif"
       font-size="353px"
       font-weight="400"
       id="tspan234"><tspan
         class="TextPosition"
         x="14384"
         y="7943"
         id="tspan236"><tspan
           fill="rgb(0,0,0)"
           stroke="none"
           id="tspan238">0,04</tspan></tspan></tspan></text>
<text
     class="TextShape"
     id="text240"><tspan
       class="TextParagraph"
       font-family="Liberation Sans, sans-serif"
       font-size="353px"
       font-weight="400"
       id="tspan242"><tspan
         class="TextPosition"
         x="16532"
         y="7943"
         id="tspan244"><tspan
           fill="rgb(0,0,0)"
           stroke="none"
           id="tspan246">0,06</tspan></tspan></tspan></text>
<text
     class="TextShape"
     id="text248"><tspan
       class="TextParagraph"
       font-family="Liberation Sans, sans-serif"
       font-size="353px"
       font-weight="400"
       id="tspan250"><tspan
         class="TextPosition"
         x="18679"
         y="7943"
         id="tspan252"><tspan
           fill="rgb(0,0,0)"
           stroke="none"
           id="tspan254">0,08</tspan></tspan></tspan></text>
<text
     class="TextShape"
     id="text256"><tspan
       class="TextParagraph"
       font-family="Liberation Sans, sans-serif"
       font-size="353px"
       font-weight="400"
       id="tspan258"><tspan
         class="TextPosition"
         x="20919"
         y="7943"
         id="tspan260"><tspan
           fill="rgb(0,0,0)"
           stroke="none"
           id="tspan262">0,1</tspan></tspan></tspan></text>
<text
     class="TextShape"
     id="text264"><tspan
       class="TextParagraph"
       font-family="Liberation Sans, sans-serif"
       font-size="353px"
       font-weight="400"
       id="tspan266"><tspan
         class="TextPosition"
         x="9588"
         y="13153"
         id="tspan268"><tspan
           fill="rgb(0,0,0)"
           stroke="none"
           id="tspan270">-0,5</tspan></tspan></tspan></text>
<text
     class="TextShape"
     id="text272"><tspan
       class="TextParagraph"
       font-family="Liberation Sans, sans-serif"
       font-size="353px"
       font-weight="400"
       id="tspan274"><tspan
         class="TextPosition"
         x="9588"
         y="12021"
         id="tspan276"><tspan
           fill="rgb(0,0,0)"
           stroke="none"
           id="tspan278">-0,4</tspan></tspan></tspan></text>
<text
     class="TextShape"
     id="text280"><tspan
       class="TextParagraph"
       font-family="Liberation Sans, sans-serif"
       font-size="353px"
       font-weight="400"
       id="tspan282"><tspan
         class="TextPosition"
         x="9588"
         y="10890"
         id="tspan284"><tspan
           fill="rgb(0,0,0)"
           stroke="none"
           id="tspan286">-0,3</tspan></tspan></tspan></text>
<text
     class="TextShape"
     id="text288"><tspan
       class="TextParagraph"
       font-family="Liberation Sans, sans-serif"
       font-size="353px"
       font-weight="400"
       id="tspan290"><tspan
         class="TextPosition"
         x="9588"
         y="9758"
         id="tspan292"><tspan
           fill="rgb(0,0,0)"
           stroke="none"
           id="tspan294">-0,2</tspan></tspan></tspan></text>
<text
     class="TextShape"
     id="text296"><tspan
       class="TextParagraph"
       font-family="Liberation Sans, sans-serif"
       font-size="353px"
       font-weight="400"
       id="tspan298"><tspan
         class="TextPosition"
         x="9588"
         y="8627"
         id="tspan300"><tspan
           fill="rgb(0,0,0)"
           stroke="none"
           id="tspan302">-0,1</tspan></tspan></tspan></text>
<text
     class="TextShape"
     id="text304"><tspan
       class="TextParagraph"
       font-family="Liberation Sans, sans-serif"
       font-size="353px"
       font-weight="400"
       id="tspan306"><tspan
         class="TextPosition"
         x="9985"
         y="7496"
         id="tspan308"><tspan
           fill="rgb(0,0,0)"
           stroke="none"
           id="tspan310">0</tspan></tspan></tspan></text>
<text
     class="TextShape"
     id="text312"><tspan
       class="TextParagraph"
       font-family="Liberation Sans, sans-serif"
       font-size="353px"
       font-weight="400"
       id="tspan314"><tspan
         class="TextPosition"
         x="9694"
         y="6364"
         id="tspan316"><tspan
           fill="rgb(0,0,0)"
           stroke="none"
           id="tspan318">0,1</tspan></tspan></tspan></text>
<text
     class="TextShape"
     id="text320"><tspan
       class="TextParagraph"
       font-family="Liberation Sans, sans-serif"
       font-size="353px"
       font-weight="400"
       id="tspan322"><tspan
         class="TextPosition"
         x="9694"
         y="5233"
         id="tspan324"><tspan
           fill="rgb(0,0,0)"
           stroke="none"
           id="tspan326">0,2</tspan></tspan></tspan></text>
<text
     class="TextShape"
     id="text328"><tspan
       class="TextParagraph"
       font-family="Liberation Sans, sans-serif"
       font-size="353px"
       font-weight="400"
       id="tspan330"><tspan
         class="TextPosition"
         x="9694"
         y="4101"
         id="tspan332"><tspan
           fill="rgb(0,0,0)"
           stroke="none"
           id="tspan334">0,3</tspan></tspan></tspan></text>
<text
     class="TextShape"
     id="text336"><tspan
       class="TextParagraph"
       font-family="Liberation Sans, sans-serif"
       font-size="353px"
       font-weight="400"
       id="tspan338"><tspan
         class="TextPosition"
         x="9694"
         y="2970"
         id="tspan340"><tspan
           fill="rgb(0,0,0)"
           stroke="none"
           id="tspan342">0,4</tspan></tspan></tspan></text>
<text
     class="TextShape"
     id="text344"><tspan
       class="TextParagraph"
       font-family="Liberation Sans, sans-serif"
       font-size="353px"
       font-weight="400"
       id="tspan346"><tspan
         class="TextPosition"
         x="9694"
         y="1839"
         id="tspan348"><tspan
           fill="rgb(0,0,0)"
           stroke="none"
           id="tspan350">0,5</tspan></tspan></tspan></text>
<text
     class="TextShape"
     id="text352"><tspan
       class="TextParagraph"
       font-family="Liberation Sans, sans-serif"
       font-size="353px"
       font-weight="400"
       id="tspan354"><tspan
         class="TextPosition"
         x="4818"
         y="1470"
         id="tspan356"><tspan
           fill="rgb(0,0,0)"
           stroke="none"
           id="tspan358">f(x) =  - 1648,5269431961x^3 + 82,8453882498x^2 - 0,7250588812x - 0,1422352735</tspan></tspan></tspan></text>
<text
     class="TextShape"
     id="text360"><tspan
       class="TextParagraph"
       font-family="Liberation Sans, sans-serif"
       font-size="459px"
       font-weight="400"
       id="tspan362"><tspan
         class="TextPosition"
         x="2752"
         y="677"
         id="tspan364"><tspan
           fill="rgb(0,0,0)"
           stroke="none"
           id="tspan366">Graf závislosti vychýlenia konečnej pozície lopty od posunu ľavého chodila po osi y</tspan></tspan></tspan></text>
<text
     class="TextShape"
     id="text368"><tspan
       class="TextParagraph"
       font-family="Liberation Sans, sans-serif"
       font-size="318px"
       font-weight="400"
       id="tspan370"><tspan
         class="TextPosition"
         x="9755"
         y="13909"
         id="tspan372"><tspan
           fill="rgb(0,0,0)"
           stroke="none"
           id="tspan374">Posun ľavého chodidla</tspan></tspan></tspan></text>
<text
     class="TextShape"
     id="text376"
     x="-10086.496"
     y="-7795.0591"
     transform="matrix(0,-1,1,0,0,0)"
     style="font-size:12px"><tspan
       class="TextParagraph"
       font-size="318px"
       font-weight="400"
       id="tspan378"
       style="font-size:318px;font-weight:400;font-family:'Liberation Sans, sans-serif'"><tspan
         class="TextPosition"
         x="-9249.4961"
         y="969.94189"
         transform="matrix(0,-1,1,0,-7928,9602)"
         id="tspan380"><tspan
           id="tspan382"
           style="fill:#000000;stroke:none">Vyhýlenie lopty alfa</tspan></tspan></tspan></text>
</svg>